<svg width="18" height="19" viewBox="0 0 18 19" fill="none" xmlns="http://www.w3.org/2000/svg">
<g id="icon / check-circle">
<g id="icon">
<path d="M11.7566 8.55309C12.062 8.27333 12.0828 7.79891 11.8031 7.49345C11.5233 7.18799 11.0489 7.16715 10.7434 7.44691L7.97439 9.98298L7.25655 9.32554C6.95109 9.04578 6.47667 9.06661 6.19691 9.37207C5.91715 9.67754 5.93799 10.152 6.24345 10.4317L7.46784 11.5531C7.75451 11.8156 8.19427 11.8156 8.48094 11.5531L11.7566 8.55309Z" fill="#009933"/>
<path fill-rule="evenodd" clip-rule="evenodd" d="M9 2C4.85786 2 1.5 5.35786 1.5 9.5C1.5 13.6421 4.85786 17 9 17C13.1421 17 16.5 13.6421 16.5 9.5C16.5 5.35786 13.1421 2 9 2ZM3 9.5C3 6.18629 5.68629 3.5 9 3.5C12.3137 3.5 15 6.18629 15 9.5C15 12.8137 12.3137 15.5 9 15.5C5.68629 15.5 3 12.8137 3 9.5Z" fill="#009933"/>
</g>
</g>
</svg>
