<svg width="13" height="16" viewBox="0 0 13 16" fill="none" xmlns="http://www.w3.org/2000/svg">
<path id="Vector" d="M2.25997 2.35183L2.25999 2.3518C3.31769 1.22521 4.74385 0.6 6.22229 0.6C7.70072 0.6 9.12689 1.22521 10.1846 2.3518C11.2435 3.47968 11.8444 5.01706 11.8444 6.62742C11.8444 8.23778 11.2435 9.77516 10.1846 10.903L6.22229 15.1234L2.25999 10.903L2.25997 10.903C1.73591 10.3449 1.31836 9.68025 1.03287 8.94617C0.74736 8.21205 0.6 7.42403 0.6 6.62742C0.6 5.83081 0.74736 5.04279 1.03287 4.30867C1.31836 3.57459 1.73591 2.90995 2.25997 2.35183ZM6.22229 9.12087C6.86554 9.12087 7.47416 8.84835 7.91672 8.37697C8.35807 7.90687 8.59996 7.27694 8.59996 6.62742C8.59996 5.9779 8.35807 5.34796 7.91672 4.87787C7.47416 4.40649 6.86554 4.13397 6.22229 4.13397C5.57904 4.13397 4.97041 4.40649 4.52786 4.87787C4.08651 5.34796 3.84462 5.9779 3.84462 6.62742C3.84462 7.27694 4.08651 7.90687 4.52786 8.37697C4.97041 8.84835 5.57904 9.12087 6.22229 9.12087Z" stroke="#101928" stroke-width="1.2"/>
</svg>
