<svg xmlns="http://www.w3.org/2000/svg" xmlns:xlink="http://www.w3.org/1999/xlink" version="1.1" x="0px" y="0px" viewBox="0 0 100 125" style="enable-background:new 0 0 100 100;" xml:space="preserve"><style type="text/css">
	.st0{fill:none;stroke:#F5B546;stroke-width:2;stroke-linecap:round;stroke-linejoin:round;stroke-miterlimit:10;}
	.st1{fill:none;stroke:#F5B546;stroke-linecap:round;stroke-linejoin:round;stroke-miterlimit:10;}
	.st2{fill:none;stroke:#F5B546;stroke-width:2;stroke-miterlimit:10;}
	.st3{fill:none;stroke:#F5B546;stroke-width:2;stroke-linecap:round;stroke-miterlimit:10;}
	.st4{fill:none;stroke:#F5B546;stroke-miterlimit:10;}
	.st5{fill:none;stroke:#F5B546;stroke-linecap:round;stroke-miterlimit:10;}
</style><path d="M88.4,12.9c-0.7-0.6-1.6-0.9-2.7-0.8c-6.1,0.5-17.9,13.1-29.4,26.4l-3.8-3.8c-1.6-1.6-3.9-2.2-6.1-1.7l-5,1.3  c-1.1,0.3-2.1,0.9-3,1.7L9.5,64.9c-0.4,0.4-0.4,1,0,1.4l21.6,21.6c0.2,0.2,0.5,0.3,0.7,0.3s0.5-0.1,0.7-0.3l28.9-28.9  c0.8-0.8,1.4-1.8,1.7-3l1.3-5c0.5-2.2-0.1-4.5-1.7-6.1L57.8,40c4-4.1,10.8-8.4,17-12.3c9-5.6,14.4-9.2,14.7-12.4  C89.5,14.7,89.3,13.7,88.4,12.9z M62.4,50.5l-1.3,5c-0.2,0.8-0.6,1.5-1.2,2L31.8,85.7L11.7,65.6l28.2-28.2c0.6-0.6,1.3-1,2-1.2  l5-1.3c1.5-0.4,3.1,0.1,4.2,1.2L55,40c-0.7,0.8-1.3,1.5-1.9,2.3c-1.7-0.9-3.9-0.6-5.3,0.8c-0.9,0.9-1.3,2-1.3,3.2s0.5,2.4,1.3,3.2  c0.9,0.9,2,1.3,3.2,1.3s2.4-0.5,3.2-1.3c0.9-0.9,1.3-2,1.3-3.2c0-1-0.4-2-1-2.8c0.6-0.7,1.2-1.4,1.8-2.1l4.8,4.8  C62.4,47.4,62.8,49,62.4,50.5z M50.3,47.1c0.2,0.2,0.4,0.2,0.6,0.2c0.3,0,0.6-0.1,0.8-0.4l1.6-1.9c0.2,0.4,0.3,0.8,0.3,1.2  c0,0.7-0.3,1.3-0.8,1.8c-1,1-2.7,1-3.7,0c-0.5-0.5-0.8-1.1-0.8-1.8s0.3-1.3,0.8-1.8c0.5-0.5,1.2-0.8,1.8-0.8c0.2,0,0.5,0,0.7,0.1  l-1.5,1.8C49.8,46.2,49.9,46.8,50.3,47.1z M73.7,26c-2.8,1.8-5.7,3.6-8.5,5.5c7.8-8.6,16.4-17,20.7-17.4c0.1,0,0.1,0,0.2,0  c0.4,0,0.7,0.1,1,0.3c0.3,0.3,0.4,0.5,0.4,0.7C87.3,17.5,80,22,73.7,26z"/><path d="M27.8,58.5c-1-0.1-2,0.2-2.7,0.9c-0.8,0.7-1.2,1.6-1.3,2.6c-0.1,1,0.2,2,0.9,2.7c0.7,0.8,1.6,1.2,2.6,1.3c0.1,0,0.2,0,0.3,0  c0.9,0,1.7-0.3,2.4-0.9c0.8-0.7,1.2-1.6,1.3-2.6c0.1-1-0.2-2-0.9-2.7C29.7,59,28.8,58.5,27.8,58.5z M28.6,63.5  c-0.7,0.6-1.8,0.5-2.5-0.2c-0.6-0.7-0.5-1.8,0.2-2.5c0.3-0.3,0.7-0.4,1.1-0.4c0,0,0.1,0,0.1,0c0.5,0,0.9,0.2,1.2,0.6  C29.5,61.8,29.4,62.9,28.6,63.5z"/><path d="M40.4,60.5c-0.8,0.7-1.2,1.6-1.3,2.6c-0.1,1,0.2,2,0.9,2.7c0.7,0.8,1.6,1.2,2.6,1.3c0.1,0,0.2,0,0.3,0  c0.9,0,1.7-0.3,2.4-0.9c0.8-0.7,1.2-1.6,1.3-2.6c0.1-1-0.2-2-0.9-2.7C44.4,59.3,42,59.2,40.4,60.5z M44,64.7  c-0.7,0.6-1.8,0.5-2.5-0.2c-0.3-0.4-0.5-0.8-0.4-1.3s0.2-0.9,0.6-1.2c0.3-0.3,0.7-0.4,1.1-0.4c0.5,0,1,0.2,1.3,0.6  c0.3,0.4,0.5,0.8,0.4,1.3S44.4,64.4,44,64.7z"/><path d="M35.8,50.9c-0.5,0-1,0.4-1.1,0.9l-1.6,21.4c0,0.6,0.4,1,0.9,1.1c0,0,0.1,0,0.1,0c0.5,0,1-0.4,1-0.9L36.7,52  C36.8,51.5,36.4,51,35.8,50.9z"/></svg>