<svg width="12" height="12" viewBox="0 0 12 12" fill="none" xmlns="http://www.w3.org/2000/svg">
<g id="icon / sign-out">
<g id="icon">
<path d="M3.75 2C4.02614 2 4.25 1.77614 4.25 1.5C4.25 1.22386 4.02614 1 3.75 1H3C1.89543 1 1 1.89543 1 3V9C1 10.1046 1.89543 11 3 11H3.75C4.02614 11 4.25 10.7761 4.25 10.5C4.25 10.2239 4.02614 10 3.75 10H3C2.44772 10 2 9.55228 2 9L2 3C2 2.44772 2.44772 2 3 2H3.75Z" fill="black"/>
<path d="M11.3536 6.35355C11.5488 6.15829 11.5488 5.84171 11.3536 5.64645L9.35355 3.64645C9.15829 3.45118 8.84171 3.45118 8.64645 3.64645C8.45118 3.84171 8.45118 4.15829 8.64645 4.35355L9.79289 5.5L4 5.5C3.72386 5.5 3.5 5.72386 3.5 6C3.5 6.27614 3.72386 6.5 4 6.5L9.79289 6.5L8.64645 7.64645C8.45118 7.84171 8.45118 8.15829 8.64645 8.35355C8.84171 8.54882 9.15829 8.54882 9.35355 8.35355L11.3536 6.35355Z" fill="black"/>
</g>
</g>
</svg>
