<svg width="20" height="20" viewBox="0 0 20 20" fill="none" xmlns="http://www.w3.org/2000/svg">
<g id="icon / ticket">
<g id="icon">
<path d="M6.66633 5.41667C6.66633 4.95643 6.29323 4.58333 5.83299 4.58333C5.37276 4.58333 4.99966 4.95643 4.99966 5.41667V7.08333C4.99966 7.54357 5.37276 7.91667 5.83299 7.91667C6.29323 7.91667 6.66633 7.54357 6.66633 7.08333V5.41667Z" fill="black"/>
<path d="M5.83299 8.33333C6.29323 8.33333 6.66633 8.70643 6.66633 9.16667V10.8333C6.66633 11.2936 6.29323 11.6667 5.83299 11.6667C5.37276 11.6667 4.99966 11.2936 4.99966 10.8333V9.16667C4.99966 8.70643 5.37276 8.33333 5.83299 8.33333Z" fill="black"/>
<path d="M6.66633 12.9167C6.66633 12.4564 6.29323 12.0833 5.83299 12.0833C5.37276 12.0833 4.99966 12.4564 4.99966 12.9167V14.5833C4.99966 15.0436 5.37276 15.4167 5.83299 15.4167C6.29323 15.4167 6.66633 15.0436 6.66633 14.5833V12.9167Z" fill="black"/>
<path fill-rule="evenodd" clip-rule="evenodd" d="M18.7497 14.1667L18.7497 13.9235C18.7497 13.406 18.6292 12.8956 18.3977 12.4328L17.6438 10.925C17.3764 10.39 17.416 9.75275 17.7478 9.25511L18.1898 8.59206C18.5549 8.0445 18.7497 7.40114 18.7497 6.74306V5.83333C18.7497 3.99239 17.2573 2.5 15.4163 2.5H4.06138C2.06713 2.5 0.524159 4.24785 0.771513 6.2267C0.831273 6.70478 0.994512 7.16409 1.24987 7.57266L2.21487 9.11667C2.55265 9.65712 2.55265 10.3429 2.21487 10.8833L1.33967 12.2837C1.00856 12.8134 0.832994 13.4256 0.832994 14.0503L0.832994 14.1667C0.832994 16.0076 2.32538 17.5 4.16633 17.5H15.4163C17.2573 17.5 18.7497 16.0076 18.7497 14.1667ZM17.083 13.9235L17.083 14.1667C17.083 15.0871 16.3368 15.8333 15.4163 15.8333L4.16633 15.8333C3.24585 15.8333 2.49966 15.0871 2.49966 14.1667V14.0503C2.49966 13.738 2.58744 13.4319 2.753 13.167L3.6282 11.7667C4.30377 10.6858 4.30376 9.31424 3.6282 8.23334L2.6632 6.68933C2.53621 6.48615 2.45503 6.25773 2.42531 6.01998C2.3023 5.03588 3.06963 4.16667 4.06138 4.16667L15.4163 4.16667C16.3368 4.16667 17.083 4.91286 17.083 5.83333V6.74306C17.083 7.07211 16.9856 7.39378 16.8031 7.66756L16.361 8.33061C15.6975 9.3259 15.6182 10.6004 16.1531 11.6703L16.907 13.1781C17.0227 13.4096 17.083 13.6648 17.083 13.9235Z" fill="black"/>
</g>
</g>
</svg>
