<svg width="15" height="16" viewBox="0 0 15 16" fill="none" xmlns="http://www.w3.org/2000/svg">
<g id="Icon-left">
<g id="icon">
<path fill-rule="evenodd" clip-rule="evenodd" d="M1.6951 0.666626C1.35759 0.666626 1.08398 0.965103 1.08398 1.33329C1.08398 1.70148 1.35759 1.99996 1.6951 1.99996C2.18916 1.99996 2.61208 2.38653 2.69857 2.91718L3.14244 5.64048L3.39352 7.22766C3.55088 8.22244 3.67653 9.01675 3.8354 9.64777C3.99904 10.2977 4.21162 10.8352 4.57498 11.2911C4.82435 11.604 5.1168 11.8727 5.44184 12.0876C5.91547 12.4007 6.43715 12.5378 7.05209 12.6032C7.6491 12.6666 8.38796 12.6666 9.31329 12.6666H9.59995C10.0109 12.6666 10.353 12.6666 10.6355 12.6434C10.9312 12.6191 11.2038 12.5669 11.4691 12.439C11.8529 12.2539 12.1866 11.9641 12.438 11.5975C12.6118 11.3442 12.7195 11.0661 12.8076 10.7572C12.8917 10.4621 12.9684 10.0984 13.0605 9.66141L13.0721 9.60644C13.2123 8.9421 13.3267 8.39947 13.3821 7.95645C13.4391 7.50094 13.4454 7.07281 13.3156 6.65956C13.1331 6.07822 12.7721 5.5835 12.2937 5.25906C11.9536 5.02843 11.5698 4.93909 11.1501 4.89752C10.7419 4.85708 10.2315 4.85709 9.60662 4.8571H4.25615L3.90192 2.68377C3.71171 1.51676 2.78164 0.666626 1.6951 0.666626ZM4.59257 6.96696L4.46972 6.19044H9.57738C10.2386 6.19044 10.6932 6.19108 11.0395 6.22539C11.3807 6.25918 11.5439 6.32057 11.6484 6.39141C11.8876 6.55363 12.0681 6.801 12.1594 7.09167C12.1992 7.2186 12.2175 7.40593 12.1711 7.77619C12.1241 8.15207 12.0228 8.63553 11.8745 9.33849C11.776 9.80553 11.7093 10.1199 11.6404 10.3613C11.574 10.5943 11.5176 10.714 11.4594 10.7987C11.3337 10.982 11.1669 11.1269 10.9749 11.2195C10.8861 11.2623 10.7666 11.2955 10.5436 11.3138C10.3125 11.3329 10.0167 11.3333 9.57738 11.3333H9.34494C8.38081 11.3333 7.70148 11.3326 7.17065 11.2761C6.65095 11.2209 6.33157 11.1167 6.07524 10.9473C5.85854 10.804 5.66358 10.6249 5.49733 10.4163C5.30067 10.1696 5.15227 9.84393 5.01398 9.29464C4.87272 8.73358 4.75653 8.00342 4.59257 6.96696Z" fill="#475367"/>
<path d="M5.8201 14.6666C6.24198 14.6666 6.58398 14.2935 6.58398 13.8333C6.58398 13.3731 6.24198 13 5.8201 13C5.39821 13 5.05621 13.3731 5.05621 13.8333C5.05621 14.2935 5.39821 14.6666 5.8201 14.6666Z" fill="#475367"/>
<path d="M12.084 13.8333C12.084 14.2935 11.742 14.6666 11.3201 14.6666C10.8982 14.6666 10.5562 14.2935 10.5562 13.8333C10.5562 13.3731 10.8982 13 11.3201 13C11.742 13 12.084 13.3731 12.084 13.8333Z" fill="#475367"/>
<path d="M13.8207 2.47136C14.0594 2.21102 14.0594 1.78891 13.8207 1.52856C13.5821 1.26821 13.1951 1.2682 12.9565 1.52855L11.7717 2.82104L11.5994 2.63312C11.3608 2.37277 10.9739 2.37277 10.7352 2.63312C10.4965 2.89347 10.4965 3.31558 10.7352 3.57593L11.3396 4.23526C11.5782 4.49561 11.9652 4.49561 12.2038 4.23526L13.8207 2.47136Z" fill="#475367"/>
</g>
</g>
</svg>
