<svg width="20" height="20" viewBox="0 0 20 20" fill="none" xmlns="http://www.w3.org/2000/svg">
<g id="icon / copy">
<path id="icon" fill-rule="evenodd" clip-rule="evenodd" d="M11.6667 1.66663C9.82572 1.66663 8.33334 3.15901 8.33334 4.99996V6.66663H5.00001C3.15906 6.66663 1.66667 8.15901 1.66667 9.99996V15C1.66667 16.8409 3.15906 18.3333 5.00001 18.3333H8.33334C10.1743 18.3333 11.6667 16.8409 11.6667 15V13.3333H15C16.841 13.3333 18.3333 11.8409 18.3333 9.99996V4.99996C18.3333 3.15901 16.841 1.66663 15 1.66663H11.6667ZM11.6667 11.6666H15C15.9205 11.6666 16.6667 10.9204 16.6667 9.99996V4.99996C16.6667 4.07948 15.9205 3.33329 15 3.33329H11.6667C10.7462 3.33329 10 4.07948 10 4.99996V7.11257C10.9963 7.68892 11.6667 8.76616 11.6667 9.99996V11.6666ZM3.33334 9.99996C3.33334 9.07948 4.07953 8.33329 5.00001 8.33329H8.33334C9.25381 8.33329 10 9.07948 10 9.99996V15C10 15.9204 9.25381 16.6666 8.33334 16.6666H5.00001C4.07953 16.6666 3.33334 15.9204 3.33334 15V9.99996Z" fill="white"/>
</g>
</svg>
