<svg width="15" height="15" viewBox="0 0 15 15" fill="none" xmlns="http://www.w3.org/2000/svg">
<g id="button-icon" clip-path="url(#clip0_10602_20410)">
<path id="icon" fill-rule="evenodd" clip-rule="evenodd" d="M8.56138 1.31559L7.8125 1.9964L7.06362 1.31559C5.89208 0.250556 4.25436 1.20731 4.20674 2.50015H2.5C1.46447 2.50015 0.625 3.33962 0.625 4.37515V5.5557C0.625 6.05828 0.905993 6.49523 1.31944 6.71802V11.8751C1.31944 13.2559 2.43873 14.3751 3.81944 14.3751H11.1806C12.5613 14.3751 13.6806 13.2559 13.6806 11.8751V6.71802C14.094 6.49523 14.375 6.05828 14.375 5.5557V4.37515C14.375 3.33961 13.5355 2.50015 12.5 2.50015H11.4183C11.3706 1.20731 9.73292 0.250556 8.56138 1.31559ZM5.01146 3.75015C5.00421 3.75027 4.99696 3.75027 4.98973 3.75015H2.5C2.15482 3.75015 1.875 4.02997 1.875 4.37515V5.5557C1.875 5.59406 1.90609 5.62515 1.94444 5.62515H13.0556C13.0939 5.62515 13.125 5.59406 13.125 5.5557V4.37515C13.125 4.02997 12.8452 3.75015 12.5 3.75015H10.6353C10.628 3.75027 10.6208 3.75027 10.6135 3.75015H5.01146ZM8.4375 6.87515H6.5625V8.55488C6.5625 8.57638 6.56772 8.5865 6.57167 8.59249C6.57712 8.60076 6.58709 8.61049 6.60197 8.61764C6.61685 8.62479 6.63067 8.62649 6.64053 8.62559C6.64768 8.62493 6.65885 8.62268 6.67563 8.60925C7.15759 8.22369 7.84241 8.22369 8.32437 8.60925C8.34115 8.62268 8.35232 8.62493 8.35947 8.62559C8.36933 8.62649 8.38315 8.62479 8.39803 8.61764C8.41291 8.61049 8.42288 8.60076 8.42833 8.59249C8.43228 8.5865 8.4375 8.57638 8.4375 8.55488V6.87515ZM5.3125 6.87515V8.55488C5.3125 9.6614 6.59245 10.2766 7.4565 9.58534C7.48193 9.56499 7.51807 9.56499 7.5435 9.58534C8.40755 10.2766 9.6875 9.6614 9.6875 8.55488V6.87515H12.4306V11.8751C12.4306 12.5655 11.8709 13.1251 11.1806 13.1251H3.81944C3.12909 13.1251 2.56944 12.5655 2.56944 11.8751V6.87515H5.3125ZM6.22277 2.24052L6.50837 2.50015H5.47338C5.52592 2.18668 5.92959 1.97399 6.22277 2.24052ZM10.1516 2.50015C10.0991 2.18668 9.69541 1.97399 9.40223 2.24052L9.11663 2.50015H10.1516Z" fill="#98A2B3"/>
</g>
<defs>
<clipPath id="clip0_10602_20410">
<rect width="15" height="15" fill="white"/>
</clipPath>
</defs>
</svg>
