<svg width="15" height="16" viewBox="0 0 15 16" fill="none" xmlns="http://www.w3.org/2000/svg">
<g id="Icon-left" clip-path="url(#clip0_8820_207626)">
<path id="icon" fill-rule="evenodd" clip-rule="evenodd" d="M6.72437 1.82071C7.11566 2.03689 7.4342 2.28992 7.66657 2.50265C7.89894 2.28992 8.21746 2.03689 8.60873 1.82071C9.49542 1.33081 10.7716 1.02782 12.2067 1.8207C13.1234 2.32719 13.7436 3.09356 14.0813 4.02403C14.4144 4.94198 14.4597 5.98121 14.2993 7.03558C14.0261 8.83198 12.9006 10.4349 11.7447 11.67C10.5743 12.9205 9.29102 13.8795 8.56729 14.3796C8.01334 14.7623 7.31983 14.7623 6.76587 14.3796C6.04213 13.8795 4.75884 12.9205 3.58846 11.67C2.4325 10.435 1.30698 8.83198 1.03375 7.03558C0.873386 5.98121 0.918652 4.94198 1.25181 4.02403C1.5895 3.09356 2.20963 2.32719 3.12637 1.8207C4.5615 1.02782 5.83767 1.33081 6.72437 1.82071ZM7.20099 3.85692C7.31708 4.00589 7.4873 4.09178 7.66659 4.09177C7.84556 4.09177 8.0155 4.00618 8.13157 3.85769C8.13171 3.85752 8.13184 3.85735 8.13197 3.85718C8.13213 3.85698 8.13229 3.85677 8.13244 3.85657L8.14172 3.84522C8.15123 3.8337 8.1672 3.81474 8.18934 3.78974C8.23372 3.73964 8.30226 3.66597 8.39255 3.5798C8.57448 3.40618 8.83706 3.18915 9.16096 3.01019C9.79712 2.65871 10.653 2.45687 11.6545 3.01019C12.3084 3.37145 12.7186 3.89136 12.9449 4.51485C13.1757 5.15086 13.228 5.93327 13.0936 6.81734C12.8849 8.18919 11.9882 9.54348 10.8894 10.7175C9.80512 11.876 8.60126 12.7778 7.91332 13.2531C7.75867 13.36 7.57449 13.36 7.41983 13.2531C6.73188 12.7778 5.528 11.876 4.44366 10.7175C3.34489 9.54348 2.44814 8.18919 2.23949 6.81734C2.10503 5.93327 2.15738 5.15086 2.3882 4.51485C2.61449 3.89136 3.02469 3.37145 3.67858 3.01019C4.68009 2.45687 5.53597 2.65871 6.17216 3.01019C6.49608 3.18915 6.75866 3.40618 6.94061 3.57981C7.0309 3.66598 7.09945 3.73965 7.14383 3.78976C7.16597 3.81475 7.18195 3.83372 7.19145 3.84523L7.20099 3.85692Z" fill="#475367"/>
</g>
<defs>
<clipPath id="clip0_8820_207626">
<rect width="14.6667" height="16" fill="white" transform="translate(0.333008)"/>
</clipPath>
</defs>
</svg>
