<svg width="15" height="15" viewBox="0 0 15 15" fill="none" xmlns="http://www.w3.org/2000/svg">
<g id="button-icon" clip-path="url(#clip0_10914_9546)">
<g id="icon">
<path d="M7.49955 3.75033C7.84473 3.75033 8.12455 4.03016 8.12455 4.37533V8.75033C8.12455 9.09551 7.84473 9.37533 7.49955 9.37533C7.15437 9.37533 6.87455 9.09551 6.87455 8.75033V4.37533C6.87455 4.03016 7.15437 3.75033 7.49955 3.75033Z" fill="#98A2B3"/>
<path d="M7.49955 11.2503C7.06808 11.2503 6.7183 10.9006 6.7183 10.4691C6.7183 10.0376 7.06808 9.68783 7.49955 9.68783C7.93102 9.68783 8.2808 10.0376 8.2808 10.4691C8.2808 10.9006 7.93102 11.2503 7.49955 11.2503Z" fill="#98A2B3"/>
<path fill-rule="evenodd" clip-rule="evenodd" d="M8.75399 0.630473C7.97823 0.180467 7.02087 0.180467 6.24511 0.630473L4.21472 1.80828L2.17729 2.97903C1.3997 3.42585 0.921018 4.25495 0.922857 5.15178L0.927676 7.49905V7.50162L0.922857 9.84889C0.921018 10.7457 1.3997 11.5748 2.17729 12.0216L4.2125 13.1911L4.21472 13.1924L6.24511 14.3702C7.02087 14.8202 7.97823 14.8202 8.75399 14.3702L10.7844 13.1924L10.7866 13.1911L12.8218 12.0216C13.5994 11.5748 14.0781 10.7457 14.0762 9.84889L14.0714 7.50162V7.49905L14.0762 5.15178C14.0781 4.25495 13.5994 3.42585 12.8218 2.97903L10.7866 1.80957L10.7844 1.80828L8.75399 0.630473ZM6.87233 1.71172C7.26021 1.48672 7.73889 1.48672 8.12677 1.71172L10.1594 2.89081L10.1616 2.8921L12.199 4.06284C12.5878 4.28625 12.8272 4.7008 12.8262 5.14922L12.8214 7.49905V7.50162L12.8262 9.85145C12.8272 10.2999 12.5878 10.7144 12.199 10.9378L10.1616 12.1086L10.1594 12.1099L8.12677 13.2889C7.73889 13.514 7.26021 13.514 6.87233 13.2889L4.83972 12.1098L2.80007 10.9378C2.41128 10.7144 2.17193 10.2999 2.17285 9.85145L2.17767 7.50162V7.49905L2.17285 5.14921C2.17193 4.7008 2.41128 4.28625 2.80007 4.06284L4.8375 2.8921L4.83972 2.89081L6.87233 1.71172Z" fill="#98A2B3"/>
</g>
</g>
<defs>
<clipPath id="clip0_10914_9546">
<rect width="15" height="15" fill="white"/>
</clipPath>
</defs>
</svg>
