<?xml version="1.0" encoding="UTF-8"?>
<svg id="Layer_1" data-name="Layer 1" xmlns="http://www.w3.org/2000/svg" version="1.1" viewBox="0 0 1920 1080">
  <defs>
    <style>
      .cls-1 {
        opacity: .19;
      }

      .cls-2 {
        fill: #019833;
        stroke-width: 0px;
      }
    </style>
  </defs>
  <g class="cls-1">
    <path class="cls-2" d="M881.3,583.1c21.61,33.84,42.33,66.34,63.12,98.8,5.48,8.56-1.02,12.33-6.61,15.76-66.77,41.11-136.09,46.61-204.6,7.4-62.18-35.59-96.83-92.07-99.25-163.86-2.62-77.84,36.01-134.85,102.07-172.92,84.78-48.85,185.89-28.64,245.07,50.5,33.03,44.17,60.95,92.15,91.68,138.08,7.88,11.77,16.45,23.65,26.91,33.02,20.83,18.66,45.83,20.97,70.74,9.83,25.33-11.33,40.94-31.19,40.59-60.24-.35-29.23-11.31-53.99-38.89-66.37-20.42-9.16-42.04-5.64-61.88,5.23-6.65,3.65-13.04,7.78-20.86,12.48-6.99-9.87-13.88-19.37-20.54-29.04-13.79-20.02-26.66-40.74-41.46-59.98-8.61-11.2-5.5-17.01,4.35-24.03,33.34-23.76,70.8-35.81,111.2-35.11,88.69,1.53,163.19,60.92,186.43,146.4,25.48,93.73-24.49,190.04-118.43,228.25-76.37,31.06-162.55,10.67-215.77-54.89-26.28-32.37-46.51-69.59-70.46-103.94-17.62-25.26-33.95-52.46-56.01-73.35-33.11-31.36-86.14-17.54-105.16,23.71-10.34,22.43-2.65,58.36,16.44,76.81,18.71,18.08,49.99,23.36,73.03,12.12,8.94-4.36,17.67-9.15,28.28-14.67Z"/>
  </g>
  <path class="cls-2" d="M150.79,162.67c7.86,12.3,15.39,24.11,22.94,35.91,1.99,3.11-.37,4.48-2.4,5.73-24.27,14.94-49.47,16.94-74.37,2.69-22.6-12.94-35.2-33.47-36.08-59.56-.95-28.29,13.09-49.02,37.1-62.85,30.82-17.76,67.57-10.41,89.08,18.36,12.01,16.06,22.15,33.5,33.33,50.19,2.86,4.28,5.98,8.6,9.78,12,7.57,6.78,16.66,7.62,25.71,3.57,9.21-4.12,14.88-11.34,14.75-21.9-.13-10.63-4.11-19.63-14.14-24.12-7.42-3.33-15.28-2.05-22.49,1.9-2.42,1.33-4.74,2.83-7.58,4.54-2.54-3.59-5.05-7.04-7.47-10.56-5.01-7.28-9.69-14.81-15.07-21.8-3.13-4.07-2-6.18,1.58-8.74,12.12-8.63,25.73-13.02,40.42-12.76,32.24.56,59.32,22.14,67.76,53.22,9.26,34.07-8.9,69.08-43.05,82.97-27.76,11.29-59.09,3.88-78.43-19.95-9.55-11.77-16.91-25.3-25.61-37.78-6.4-9.18-12.34-19.07-20.36-26.66-12.04-11.4-31.31-6.38-38.23,8.62-3.76,8.15-.96,21.21,5.98,27.92,6.8,6.57,18.17,8.49,26.55,4.41,3.25-1.58,6.42-3.32,10.28-5.33Z"/>
  <path class="cls-2" d="M835.29,632.25c-2.83.52-5.67.98-8.52,1.37l9.3-1.25c-12.74,1.67-25.59,1.88-38.35.25l9.3,1.25c-10.77-1.47-21.27-4.25-31.31-8.42l8.36,3.53c-9.43-4.01-18.26-9.17-26.39-15.42l7.08,5.47c-8.14-6.35-15.4-13.67-21.77-21.79l5.47,7.08c-7.25-9.39-13.19-19.67-17.83-30.59l3.53,8.36c-4.95-11.89-8.3-24.34-10.04-37.1l1.25,9.3c-1.62-12.5-1.66-25.12-.05-37.62l-1.25,9.3c1.61-11.91,4.71-23.52,9.36-34.61l-3.53,8.36c4.18-9.75,9.5-18.92,15.93-27.36l-5.47,7.08c6.59-8.5,14.19-16.07,22.68-22.66l-7.08,5.47c8.45-6.46,17.57-11.88,27.35-16.06l-8.36,3.53c9.16-3.8,18.69-6.4,28.52-7.73l-9.3,1.25c10.12-1.27,20.28-1.16,30.39.17l-9.3-1.25c12.1,1.71,23.81,5.11,35.08,9.81l-8.36-3.53c15.05,6.4,29,14.96,41.96,24.9l-7.08-5.47c18.4,14.29,34.55,31.17,48.84,49.52l-5.47-7.08c9.63,12.49,18.41,25.61,26.34,39.25,8.73,15.02,16.49,30.54,25.86,45.2,16.37,25.62,35.6,50.65,59.25,70.01,20.03,16.4,41.95,29.86,67.11,36.82,22.16,6.13,44.45,6.32,66.95,2.53,36.81-6.2,71.82-28.84,95.89-56.89,9.37-10.91,17.9-22.6,23.73-35.8,7.69-17.43,11.82-34.13,13.7-53.14,3.34-33.73-3.56-67.59-19.56-97.42-30.87-57.59-98.46-99.6-164.58-81.05-9.07,2.54-17.9,6.37-26.26,10.66-16.32,8.37-22.41,32.6-12.56,47.89,10.73,16.65,30.43,21.51,47.89,12.56,2.17-1.12,4.37-2.16,6.61-3.14l-8.36,3.53c7.28-3.06,14.8-5.21,22.61-6.38l-9.3,1.25c7.9-1.06,15.81-1.08,23.72-.12l-9.3-1.25c8.73,1.19,17.16,3.53,25.31,6.86l-8.36-3.53c9.53,4.03,18.39,9.29,26.62,15.54l-7.08-5.47c9.47,7.34,17.89,15.83,25.25,25.28l-5.47-7.08c7.32,9.58,13.44,19.94,18.22,31.02l-3.53-8.36c4.24,10.13,7.28,20.65,8.86,31.52-.42-3.1-.83-6.2-1.25-9.3,1.83,13.65,1.75,27.69.03,41.35l1.25-9.3c-1.44,10.53-4.05,20.77-8.18,30.57l3.53-8.36c-3.69,8.48-8.4,16.38-13.99,23.74l5.47-7.08c-8.05,10.39-17.54,19.76-27.93,27.82l7.08-5.47c-9.29,7.14-19.4,13.13-30.18,17.72l8.36-3.53c-9.76,4.09-19.96,6.97-30.45,8.43l9.3-1.25c-9.76,1.29-19.59,1.31-29.35.06l9.3,1.25c-10.42-1.42-20.52-4.26-30.23-8.31l8.36,3.53c-11.88-5.06-22.89-11.81-33.11-19.68l7.08,5.47c-15.11-11.8-28.24-25.83-39.99-40.93l5.47,7.08c-10.88-14.14-20.57-29.15-29.34-44.68-8.93-15.81-17.25-31.8-27.45-46.87-19.76-29.21-42.85-55.61-70.78-77.19-23.82-18.4-51.22-33.61-81-39.62-14.46-2.92-29.54-4.61-44.28-3.14-17.98,1.78-33.56,5.93-50.07,13.12-46.6,20.3-81.84,66.72-90.18,116.71-7.9,47.35,1.11,98.24,30.74,136.94,15.42,20.14,34.23,37.77,57.59,48.4,25.45,11.58,52.92,17.4,80.98,15.31,9.14-.68,18.28-1.96,27.3-3.61,8.2-1.5,16.85-9.14,20.92-16.08,4.39-7.5,6.25-18.56,3.53-26.97s-7.99-16.64-16.08-20.92c-8.73-4.61-17.26-5.31-26.97-3.53h0Z"/>
</svg>