<svg width="16" height="16" viewBox="0 0 16 16" fill="none" xmlns="http://www.w3.org/2000/svg">
<g id="icon / naira">
<path id="icon" fill-rule="evenodd" clip-rule="evenodd" d="M12.2224 3.33366C12.2224 2.96547 11.9239 2.66699 11.5557 2.66699C11.1875 2.66699 10.889 2.96547 10.889 3.33366V6.1908H7.59503L5.60997 3.21322C5.06115 2.38998 3.77792 2.77851 3.77792 3.76792V6.1908H2.66667C2.29848 6.1908 2 6.48928 2 6.85747C2 7.22566 2.29848 7.52414 2.66667 7.52414H3.77792V8.47652H2.66667C2.29848 8.47652 2 8.77499 2 9.14318C2 9.51137 2.29848 9.80985 2.66667 9.80985H3.77792V12.667C3.77792 13.0352 4.0764 13.3337 4.44459 13.3337C4.81278 13.3337 5.11126 13.0352 5.11126 12.667V9.80985H8.40526L10.3903 12.7874C10.9391 13.6107 12.2224 13.2221 12.2224 12.2327V9.80985H13.3333C13.7015 9.80985 14 9.51137 14 9.14318C14 8.77499 13.7015 8.47652 13.3333 8.47652H12.2224V7.52414H13.3333C13.7015 7.52414 14 7.22566 14 6.85747C14 6.48928 13.7015 6.1908 13.3333 6.1908H12.2224V3.33366ZM9.11884 8.47652L8.48392 7.52414H10.889V8.47652H9.11884ZM10.889 11.1318L10.0077 9.80985H10.889V11.1318ZM6.88145 7.52414L7.51637 8.47652H5.11126V7.52414H6.88145ZM5.11126 4.86884L5.99256 6.1908H5.11126V4.86884Z" fill="white"/>
</g>
</svg>
