<svg width="120" height="140" viewBox="0 0 120 140" fill="none" xmlns="http://www.w3.org/2000/svg">
<g clip-path="url(#clip0_25985_135831)">
<path d="M56.5245 139.9C66.5375 139.9 74.6545 130.1 74.6545 118.01C74.6545 105.921 66.5375 96.1201 56.5245 96.1201C46.5116 96.1201 38.3945 105.921 38.3945 118.01C38.3945 130.1 46.5116 139.9 56.5245 139.9Z" fill="#272F2B"/>
<path d="M56.2644 28.8301C61.6657 28.8301 66.0444 24.1381 66.0444 18.3501C66.0444 12.5622 61.6657 7.87012 56.2644 7.87012C50.863 7.87012 46.4844 12.5622 46.4844 18.3501C46.4844 24.1381 50.863 28.8301 56.2644 28.8301Z" fill="#33AD5C"/>
<mask id="mask0_25985_135831" style="mask-type:luminance" maskUnits="userSpaceOnUse" x="46" y="7" width="21" height="22">
<path d="M56.2644 28.8298C61.6657 28.8298 66.0444 24.1378 66.0444 18.3499C66.0444 12.5619 61.6657 7.86987 56.2644 7.86987C50.8631 7.86987 46.4844 12.5619 46.4844 18.3499C46.4844 24.1378 50.8631 28.8298 56.2644 28.8298Z" fill="white"/>
</mask>
<g mask="url(#mask0_25985_135831)">
<path d="M47.9141 3.59985C47.9141 3.59985 64.5041 7.70992 64.2441 24.1699C63.9841 40.6299 71.7041 8.16992 71.7041 8.16992L68.354 -0.0500488L47.9141 3.59985Z" fill="#009933"/>
</g>
<path d="M55.8541 18.3501H56.6241C62.4022 18.3501 68.1238 19.4882 73.4621 21.6994C78.8005 23.9106 83.651 27.1516 87.7368 31.2374C91.8225 35.3232 95.0636 40.1737 97.2748 45.512C99.486 50.8504 100.624 56.5719 100.624 62.3501V107.09H11.9141V62.3301C11.9193 50.6744 16.5492 39.4971 24.7872 31.2515C33.0253 23.006 44.1984 18.366 55.8541 18.3501Z" fill="#33AD5C"/>
<mask id="mask1_25985_135831" style="mask-type:luminance" maskUnits="userSpaceOnUse" x="11" y="18" width="90" height="90">
<path d="M55.8853 18.3499H56.6553C68.3248 18.3499 79.5165 22.9857 87.7681 31.2373C96.0197 39.4889 100.655 50.6803 100.655 62.3499V107.09H11.9453V62.3499C11.9453 50.6803 16.5809 39.4889 24.8325 31.2373C33.0841 22.9857 44.2758 18.3499 55.9453 18.3499H55.8853Z" fill="white"/>
</mask>
<g mask="url(#mask1_25985_135831)">
<path d="M69.5144 18.3499C69.5144 18.3499 87.2543 26.07 91.3743 49.21C92.3743 80.32 98.3143 100.12 74.6543 102.95C49.7143 105.01 10.3743 107.07 10.3743 107.07L5.48438 109.12L86.2244 115.04L119.144 107.04L118.624 46.0898L113.224 15.49L91.6243 9.57983L69.5144 18.3499Z" fill="#009933"/>
<path d="M8.3125 86.01C8.6125 86.28 12.3123 89.5 16.6323 88.22C17.9805 87.814 19.1936 87.0503 20.1423 86.01C19.8823 69.01 16.5423 54.6099 30.1423 38.6699C32.2889 35.8158 34.9685 33.4045 38.0325 31.5698C38.0325 31.5698 39.5324 30.6798 46.4524 27.5698C47.3616 27.3776 48.1972 26.9305 48.8613 26.2805C49.5255 25.6305 49.9906 24.8047 50.2024 23.8999C50.3854 22.6685 50.1025 21.4132 49.4089 20.3794C48.7154 19.3456 47.6612 18.6075 46.4524 18.3098C39.3924 18.8298 25.7725 25.77 25.7725 25.77L14.9724 34L8.54248 61.25L8.3125 86.01Z" fill="#B2E0C2"/>
</g>
<path d="M56.5242 87.95C60.2245 87.95 63.2242 86.7949 63.2242 85.37C63.2242 83.9451 60.2245 82.79 56.5242 82.79C52.8239 82.79 49.8242 83.9451 49.8242 85.37C49.8242 86.7949 52.8239 87.95 56.5242 87.95Z" fill="#009933"/>
<path d="M38.6072 72.23C36.5991 72.2112 34.6149 71.7918 32.7708 70.9968C30.9266 70.2018 29.2595 69.047 27.8672 67.5999L29.3972 66.2998L28.6272 66.95L29.3872 66.2998C29.6772 66.6298 36.4672 74.2999 47.3872 67.3899L48.4473 69.0798C45.5377 71.0527 42.1216 72.1464 38.6072 72.23Z" fill="#009933"/>
<path d="M73.697 72.23C71.6889 72.2112 69.7047 71.7918 67.8606 70.9968C66.0165 70.2018 64.3494 69.047 62.957 67.5999L64.4771 66.2998C64.7571 66.6298 71.5471 74.2999 82.4771 67.3899L83.5471 69.0798C80.6339 71.053 77.2145 72.1466 73.697 72.23Z" fill="#009933"/>
<path d="M104.745 106.77H7.02547C3.61787 106.77 0.855469 109.532 0.855469 112.94V116.54C0.855469 119.948 3.61787 122.71 7.02547 122.71H104.745C108.153 122.71 110.915 119.948 110.915 116.54V112.94C110.915 109.532 108.153 106.77 104.745 106.77Z" fill="#33AD5C"/>
</g>
<defs>
<clipPath id="clip0_25985_135831">
<rect width="118.29" height="139.9" fill="white" transform="translate(0.855469)"/>
</clipPath>
</defs>
</svg>
