<svg width="11" height="14" viewBox="0 0 11 14" fill="none" xmlns="http://www.w3.org/2000/svg">
<g id="icon">
<path fill-rule="evenodd" clip-rule="evenodd" d="M5.5 0.25C3.77411 0.25 2.375 1.64911 2.375 3.375C2.375 5.10089 3.77411 6.5 5.5 6.5C7.22589 6.5 8.625 5.10089 8.625 3.375C8.625 1.64911 7.22589 0.25 5.5 0.25ZM3.625 3.375C3.625 2.33947 4.46447 1.5 5.5 1.5C6.53553 1.5 7.375 2.33947 7.375 3.375C7.375 4.41053 6.53553 5.25 5.5 5.25C4.46447 5.25 3.625 4.41053 3.625 3.375Z" fill="#98A2B3"/>
<path fill-rule="evenodd" clip-rule="evenodd" d="M5.5 13.375C4.53718 13.375 3.14364 13.1564 2.09714 12.6984C1.58339 12.4735 1.06091 12.1517 0.757346 11.6859C0.597698 11.4409 0.496771 11.1523 0.500079 10.8301C0.503357 10.5109 0.608399 10.2051 0.784947 9.9205C1.64082 8.54101 3.39174 7.125 5.5 7.125C7.60825 7.125 9.35918 8.54101 10.2151 9.9205C10.3916 10.2051 10.4966 10.5109 10.4999 10.8301C10.5032 11.1523 10.4023 11.4409 10.2427 11.6859C9.93909 12.1517 9.4166 12.4735 8.90286 12.6984C7.85636 13.1564 6.46281 13.375 5.5 13.375ZM1.84712 10.5795C1.76482 10.7121 1.75048 10.7973 1.75001 10.843C1.74957 10.8857 1.76054 10.9358 1.8046 11.0034C1.90846 11.1628 2.16067 11.3617 2.59833 11.5532C3.45465 11.928 4.67077 12.125 5.5 12.125C6.32922 12.125 7.54535 11.928 8.40167 11.5532C8.83933 11.3617 9.09154 11.1628 9.1954 11.0034C9.23946 10.9358 9.25043 10.8857 9.24999 10.843C9.24952 10.7973 9.23518 10.7121 9.15288 10.5795C8.45154 9.44909 7.05271 8.375 5.5 8.375C3.94729 8.375 2.54846 9.44909 1.84712 10.5795Z" fill="#98A2B3"/>
<path fill-rule="evenodd" clip-rule="evenodd" d="M5.5 0.25C3.77411 0.25 2.375 1.64911 2.375 3.375C2.375 5.10089 3.77411 6.5 5.5 6.5C7.22589 6.5 8.625 5.10089 8.625 3.375C8.625 1.64911 7.22589 0.25 5.5 0.25ZM3.625 3.375C3.625 2.33947 4.46447 1.5 5.5 1.5C6.53553 1.5 7.375 2.33947 7.375 3.375C7.375 4.41053 6.53553 5.25 5.5 5.25C4.46447 5.25 3.625 4.41053 3.625 3.375Z" stroke="#1671D9"/>
<path fill-rule="evenodd" clip-rule="evenodd" d="M5.5 13.375C4.53718 13.375 3.14364 13.1564 2.09714 12.6984C1.58339 12.4735 1.06091 12.1517 0.757346 11.6859C0.597698 11.4409 0.496771 11.1523 0.500079 10.8301C0.503357 10.5109 0.608399 10.2051 0.784947 9.9205C1.64082 8.54101 3.39174 7.125 5.5 7.125C7.60825 7.125 9.35918 8.54101 10.2151 9.9205C10.3916 10.2051 10.4966 10.5109 10.4999 10.8301C10.5032 11.1523 10.4023 11.4409 10.2427 11.6859C9.93909 12.1517 9.4166 12.4735 8.90286 12.6984C7.85636 13.1564 6.46281 13.375 5.5 13.375ZM1.84712 10.5795C1.76482 10.7121 1.75048 10.7973 1.75001 10.843C1.74957 10.8857 1.76054 10.9358 1.8046 11.0034C1.90846 11.1628 2.16067 11.3617 2.59833 11.5532C3.45465 11.928 4.67077 12.125 5.5 12.125C6.32922 12.125 7.54535 11.928 8.40167 11.5532C8.83933 11.3617 9.09154 11.1628 9.1954 11.0034C9.23946 10.9358 9.25043 10.8857 9.24999 10.843C9.24952 10.7973 9.23518 10.7121 9.15288 10.5795C8.45154 9.44909 7.05271 8.375 5.5 8.375C3.94729 8.375 2.54846 9.44909 1.84712 10.5795Z" stroke="#1671D9"/>
</g>
</svg>
