<svg width="15" height="15" viewBox="0 0 15 15" fill="none" xmlns="http://www.w3.org/2000/svg">
<g id="button-icon">
<g id="icon">
<path d="M7.58757 6.34057C7.76398 6.20826 7.8063 5.96119 7.68399 5.77771C7.53855 5.55956 7.22989 5.529 7.04449 5.71439L6.69194 6.06694C6.44786 6.31102 6.05214 6.31102 5.80806 6.06694C5.56398 5.82286 5.56398 5.42714 5.80806 5.18306L6.16061 4.83051C6.90377 4.08734 8.14106 4.20986 8.72405 5.08434C9.21436 5.81981 9.04472 6.81021 8.33757 7.34057L8.30723 7.36333C8.19251 7.44936 8.125 7.58439 8.125 7.72779L8.125 7.8125C8.125 8.15768 7.84518 8.4375 7.5 8.4375C7.15482 8.4375 6.875 8.15768 6.875 7.8125L6.875 7.72779C6.875 7.19094 7.12776 6.68543 7.55723 6.36333L7.58757 6.34057Z" fill="#98A2B3"/>
<path d="M6.875 9.6875C6.875 10.0327 7.15482 10.3125 7.5 10.3125C7.84518 10.3125 8.125 10.0327 8.125 9.6875C8.125 9.34232 7.84518 9.0625 7.5 9.0625C7.15482 9.0625 6.875 9.34232 6.875 9.6875Z" fill="#98A2B3"/>
<path fill-rule="evenodd" clip-rule="evenodd" d="M1.25 7.5C1.25 4.04822 4.04822 1.25 7.5 1.25C10.9518 1.25 13.75 4.04822 13.75 7.5C13.75 10.9518 10.9518 13.75 7.5 13.75C4.04822 13.75 1.25 10.9518 1.25 7.5ZM7.5 2.5C4.73858 2.5 2.5 4.73858 2.5 7.5C2.5 10.2614 4.73858 12.5 7.5 12.5C10.2614 12.5 12.5 10.2614 12.5 7.5C12.5 4.73858 10.2614 2.5 7.5 2.5Z" fill="#98A2B3"/>
</g>
</g>
</svg>
