<svg width="10" height="8" viewBox="0 0 10 8" fill="none" xmlns="http://www.w3.org/2000/svg">
<path fill-rule="evenodd" clip-rule="evenodd" d="M1.93486 0.213752C2.94977 0.0711416 3.97421 -0.000298703 5 9.38659e-07C6.04143 9.38659e-07 7.06443 0.073029 8.06514 0.213341C8.91286 0.33314 9.5 1.04373 9.5 1.84211V4.31194C9.5 5.11033 8.91286 5.82091 8.06514 5.94071C7.23371 6.05723 6.38686 6.12739 5.52714 6.1479C5.4844 6.1487 5.44361 6.16514 5.41314 6.19385L3.62 7.91001C3.57505 7.95299 3.5178 7.98225 3.45549 7.9941C3.39317 8.00595 3.32859 7.99986 3.26989 7.97659C3.21119 7.95333 3.16101 7.91393 3.12569 7.86338C3.09037 7.81282 3.07148 7.75339 3.07143 7.69257V6.06995C2.69141 6.03666 2.31241 5.99343 1.93486 5.9403C1.08714 5.82133 0.5 5.10992 0.5 4.31153V1.84252C0.5 1.04414 1.08714 0.33273 1.93486 0.213752Z" fill="#009933"/>
</svg>
