<svg width="11" height="11" viewBox="0 0 11 11" fill="none" xmlns="http://www.w3.org/2000/svg">
<g id="icon">
<path d="M8.55556 0.611111C8.55556 0.273604 8.82916 0 9.16667 0C9.50417 0 9.77778 0.273604 9.77778 0.611111V2.56667C9.77778 2.90417 9.50417 3.17778 9.16667 3.17778H7.26516C6.92765 3.17778 6.65405 2.90417 6.65405 2.56667C6.65405 2.22916 6.92765 1.95556 7.26516 1.95556H7.68378C7.02051 1.49152 6.2217 1.22222 5.364 1.22222C3.0927 1.22222 1.22222 3.12108 1.22222 5.5C1.22222 5.83751 0.948619 6.11111 0.611111 6.11111C0.273604 6.11111 0 5.83751 0 5.5C0 2.4788 2.38541 0 5.364 0C6.56164 0 7.66533 0.402428 8.55556 1.07914V0.611111Z" fill="black"/>
<path d="M2.44444 10.3889C2.44444 10.7264 2.17084 11 1.83333 11C1.49583 11 1.22222 10.7264 1.22222 10.3889V8.43333C1.22222 8.09583 1.49583 7.82222 1.83333 7.82222H3.73484C4.07235 7.82222 4.34595 8.09583 4.34595 8.43333C4.34595 8.77084 4.07235 9.04444 3.73484 9.04444H3.31622C3.97949 9.50848 4.7783 9.77778 5.636 9.77778C7.9073 9.77778 9.77778 7.87892 9.77778 5.5C9.77778 5.16249 10.0514 4.88889 10.3889 4.88889C10.7264 4.88889 11 5.16249 11 5.5C11 8.5212 8.61459 11 5.636 11C4.43836 11 3.33467 10.5976 2.44444 9.92086V10.3889Z" fill="black"/>
</g>
</svg>
