<svg width="15" height="15" viewBox="0 0 15 15" fill="none" xmlns="http://www.w3.org/2000/svg">
<g id="button-icon">
<g id="icon">
<path fill-rule="evenodd" clip-rule="evenodd" d="M7.5 1.25C5.77411 1.25 4.375 2.64911 4.375 4.375C4.375 6.10089 5.77411 7.5 7.5 7.5C9.22589 7.5 10.625 6.10089 10.625 4.375C10.625 2.64911 9.22589 1.25 7.5 1.25ZM5.625 4.375C5.625 3.33947 6.46447 2.5 7.5 2.5C8.53553 2.5 9.375 3.33947 9.375 4.375C9.375 5.41053 8.53553 6.25 7.5 6.25C6.46447 6.25 5.625 5.41053 5.625 4.375Z" fill="#98A2B3"/>
<path fill-rule="evenodd" clip-rule="evenodd" d="M7.5 14.375C6.53718 14.375 5.14364 14.1564 4.09714 13.6984C3.58339 13.4735 3.06091 13.1517 2.75735 12.6859C2.5977 12.4409 2.49677 12.1523 2.50008 11.8301C2.50336 11.5109 2.6084 11.2051 2.78495 10.9205C3.64082 9.54101 5.39174 8.125 7.5 8.125C9.60825 8.125 11.3592 9.54101 12.2151 10.9205C12.3916 11.2051 12.4966 11.5109 12.4999 11.8301C12.5032 12.1523 12.4023 12.4409 12.2427 12.6859C11.9391 13.1517 11.4166 13.4735 10.9029 13.6984C9.85636 14.1564 8.46281 14.375 7.5 14.375ZM3.84712 11.5795C3.76482 11.7121 3.75048 11.7973 3.75001 11.843C3.74957 11.8857 3.76054 11.9358 3.8046 12.0034C3.90846 12.1628 4.16067 12.3617 4.59833 12.5532C5.45465 12.928 6.67077 13.125 7.5 13.125C8.32922 13.125 9.54535 12.928 10.4017 12.5532C10.8393 12.3617 11.0915 12.1628 11.1954 12.0034C11.2395 11.9358 11.2504 11.8857 11.25 11.843C11.2495 11.7973 11.2352 11.7121 11.1529 11.5795C10.4515 10.4491 9.05271 9.375 7.5 9.375C5.94729 9.375 4.54846 10.4491 3.84712 11.5795Z" fill="#98A2B3"/>
<path fill-rule="evenodd" clip-rule="evenodd" d="M7.5 1.25C5.77411 1.25 4.375 2.64911 4.375 4.375C4.375 6.10089 5.77411 7.5 7.5 7.5C9.22589 7.5 10.625 6.10089 10.625 4.375C10.625 2.64911 9.22589 1.25 7.5 1.25ZM5.625 4.375C5.625 3.33947 6.46447 2.5 7.5 2.5C8.53553 2.5 9.375 3.33947 9.375 4.375C9.375 5.41053 8.53553 6.25 7.5 6.25C6.46447 6.25 5.625 5.41053 5.625 4.375Z" stroke="#1671D9"/>
<path fill-rule="evenodd" clip-rule="evenodd" d="M7.5 14.375C6.53718 14.375 5.14364 14.1564 4.09714 13.6984C3.58339 13.4735 3.06091 13.1517 2.75735 12.6859C2.5977 12.4409 2.49677 12.1523 2.50008 11.8301C2.50336 11.5109 2.6084 11.2051 2.78495 10.9205C3.64082 9.54101 5.39174 8.125 7.5 8.125C9.60825 8.125 11.3592 9.54101 12.2151 10.9205C12.3916 11.2051 12.4966 11.5109 12.4999 11.8301C12.5032 12.1523 12.4023 12.4409 12.2427 12.6859C11.9391 13.1517 11.4166 13.4735 10.9029 13.6984C9.85636 14.1564 8.46281 14.375 7.5 14.375ZM3.84712 11.5795C3.76482 11.7121 3.75048 11.7973 3.75001 11.843C3.74957 11.8857 3.76054 11.9358 3.8046 12.0034C3.90846 12.1628 4.16067 12.3617 4.59833 12.5532C5.45465 12.928 6.67077 13.125 7.5 13.125C8.32922 13.125 9.54535 12.928 10.4017 12.5532C10.8393 12.3617 11.0915 12.1628 11.1954 12.0034C11.2395 11.9358 11.2504 11.8857 11.25 11.843C11.2495 11.7973 11.2352 11.7121 11.1529 11.5795C10.4515 10.4491 9.05271 9.375 7.5 9.375C5.94729 9.375 4.54846 10.4491 3.84712 11.5795Z" stroke="#1671D9"/>
</g>
</g>
</svg>
