<svg width="15" height="15" viewBox="0 0 15 15" fill="none" xmlns="http://www.w3.org/2000/svg">
<g id="button-icon">
<path id="icon" fill-rule="evenodd" clip-rule="evenodd" d="M3.26548 1.875C2.15236 1.875 1.25 2.77736 1.25 3.89048V10.625C1.25 12.0057 2.36929 13.125 3.75 13.125H11.25C12.6307 13.125 13.75 12.0057 13.75 10.625V6.59722C13.75 5.21678 12.6316 4.09722 11.2506 4.09722H9.30603C9.28111 4.06053 9.25239 4.01387 9.21986 3.9557C9.13179 3.79822 9.04615 3.6132 8.94789 3.40094C8.92458 3.35058 8.90055 3.29866 8.87562 3.24524C8.75612 2.98919 8.61133 2.68844 8.4437 2.44985C8.30455 2.25179 8.00055 1.875 7.5086 1.875H3.26548ZM7.80478 3.90735C7.83326 3.96898 7.86275 4.03277 7.89301 4.09722H2.5V3.89048C2.5 3.46772 2.84272 3.125 3.26548 3.125H7.38872C7.398 3.13677 7.40873 3.15111 7.4209 3.16844C7.51628 3.30419 7.61892 3.50823 7.7429 3.77388C7.7629 3.81674 7.78358 3.86147 7.80478 3.90735ZM3.75 11.875C3.05964 11.875 2.5 11.3154 2.5 10.625V5.34722H9.04886C9.05051 5.34726 9.05215 5.34729 9.0538 5.34731C9.06094 5.3474 9.06808 5.34737 9.0752 5.34722H11.2506C11.9407 5.34722 12.5 5.9066 12.5 6.59722V6.875H11.25C10.2145 6.875 9.375 7.71447 9.375 8.75C9.375 9.78553 10.2145 10.625 11.25 10.625H12.5C12.5 11.3154 11.9404 11.875 11.25 11.875H3.75ZM10.625 8.75C10.625 8.40482 10.9048 8.125 11.25 8.125H12.5V9.375H11.25C10.9048 9.375 10.625 9.09518 10.625 8.75ZM7.34462 3.07702C7.34462 3.0767 7.34721 3.07853 7.35234 3.08348C7.34717 3.07981 7.34461 3.07734 7.34462 3.07702Z" fill="#98A2B3"/>
</g>
</svg>
