<svg width="151" height="150" viewBox="0 0 151 150" fill="none" xmlns="http://www.w3.org/2000/svg">
<path d="M75.499 107.002C103.818 107.002 126.775 97.9956 126.775 86.8863C126.775 75.7769 103.818 66.771 75.499 66.771C47.1799 66.771 24.2227 75.7769 24.2227 86.8863C24.2227 97.9956 47.1799 107.002 75.499 107.002Z" fill="#F9FAFB"/>
<path d="M126.591 37.5736L121.253 79.9806C121.091 81.2736 120.203 82.3583 118.97 82.7764L81.6211 95.4028V82.0944L111.606 59.4278L118.4 33.75H123.217C125.263 33.75 126.846 35.5444 126.591 37.5736Z" fill="#D0D5DD"/>
<path d="M81.6211 95.7167C81.5572 95.7167 81.4933 95.6973 81.4391 95.6584C81.3572 95.6001 81.3086 95.5056 81.3086 95.4042V82.0959C81.3086 81.9973 81.3544 81.9056 81.4322 81.8473L111.332 59.2445L118.099 33.6709C118.135 33.5334 118.259 33.439 118.402 33.439H123.218C124.284 33.439 125.297 33.8973 126.002 34.6959C126.706 35.4945 127.034 36.5584 126.9 37.614L121.563 80.0209C121.386 81.4223 120.407 82.6209 119.068 83.0737L81.7211 95.7001C81.6891 95.7112 81.6544 95.7167 81.6211 95.7167ZM81.9336 82.2501V94.9681L118.868 82.4806C119.981 82.1042 120.796 81.1084 120.942 79.9417L126.279 37.5348C126.391 36.657 126.117 35.7723 125.532 35.107C124.946 34.4431 124.103 34.0626 123.217 34.0626H118.641L111.909 59.5084C111.891 59.5765 111.85 59.6362 111.795 59.6779L81.9336 82.2501Z" fill="#F9FAFB"/>
<path d="M81.6247 82.0956L43.4844 76.7956L73.4691 55.4775L111.609 59.4275L81.6247 82.0956Z" fill="#D0D5DD"/>
<path d="M81.6253 82.4083C81.6115 82.4083 81.5962 82.4069 81.5823 82.4055L43.442 77.1069C43.3156 77.0888 43.2115 76.9957 43.1809 76.8721C43.1503 76.7471 43.199 76.618 43.3031 76.543L73.2878 55.2249C73.3503 55.1805 73.4253 55.161 73.5017 55.1694L111.642 59.1194C111.77 59.1333 111.877 59.2221 111.911 59.3458C111.946 59.4694 111.902 59.6013 111.799 59.6791L81.8142 82.3458C81.7587 82.386 81.692 82.4083 81.6253 82.4083ZM44.3073 76.5944L81.5392 81.768L110.788 59.6583L73.5545 55.8027L44.3073 76.5944Z" fill="#F9FAFB"/>
<path d="M74.2684 58.0796L83.8476 59.0726L74.2656 58.0796H74.2684Z" fill="#D0D5DD"/>
<path d="M83.848 59.385C83.8369 59.385 83.8257 59.385 83.816 59.3836L74.2341 58.3905C74.0688 58.3738 73.9452 58.2294 73.9535 58.0641C73.9632 57.8877 74.123 57.7516 74.2994 57.7697L83.8799 58.7627C84.0521 58.7808 84.1758 58.9336 84.1591 59.1058C84.141 59.2641 84.0049 59.385 83.848 59.385Z" fill="#F9FAFB"/>
<path d="M104.947 61.257L98.8972 65.832L88.3125 64.7362L94.6958 60.1973H94.6972L104.947 61.257Z" fill="#D0D5DD"/>
<path d="M98.8965 66.1445C98.8854 66.1445 98.8757 66.1445 98.8646 66.1431L88.2798 65.0473C88.1507 65.0334 88.0423 64.9417 88.0104 64.8153C87.9771 64.6889 88.0257 64.557 88.1312 64.4806L94.5146 59.9417C94.5757 59.8973 94.6548 59.8778 94.7298 59.8862L104.98 60.9473C105.108 60.9612 105.215 61.0501 105.249 61.1737C105.284 61.2973 105.24 61.4292 105.137 61.507L99.0868 66.082C99.0312 66.1223 98.9646 66.1445 98.8965 66.1445ZM89.1687 64.5112L98.8062 65.5098L104.126 61.4876L94.7812 60.5209L89.1687 64.5112Z" fill="#F9FAFB"/>
<path d="M77.4628 63.6114L71.0767 68.153L61.4961 67.16L67.8822 62.6211L77.4628 63.6114Z" fill="#D0D5DD"/>
<path d="M71.0759 68.4655C71.0648 68.4655 71.0551 68.4655 71.044 68.4642L61.4634 67.4711C61.3343 67.4572 61.2259 67.3655 61.194 67.2392C61.1607 67.1128 61.2093 66.9808 61.3148 66.9044L67.7009 62.3655C67.7634 62.3211 67.8384 62.3017 67.9134 62.31L77.494 63.3003C77.6232 63.3142 77.7315 63.4058 77.7634 63.5322C77.7954 63.6586 77.7481 63.7905 77.6426 63.8669L71.2565 68.4086C71.2037 68.4447 71.1398 68.4655 71.0759 68.4655ZM62.3523 66.935L70.9912 67.8294L76.6065 63.8364L67.9676 62.9433L62.3523 66.935Z" fill="#F9FAFB"/>
<path d="M71.0747 68.1527L64.6885 72.693H64.6872L55.1094 71.6999L61.4941 67.1597L71.0747 68.1527Z" fill="#D0D5DD"/>
<path d="M64.6878 73.0054C64.6767 73.0054 64.6642 73.0054 64.6545 73.004L55.0767 72.011C54.9475 71.9971 54.8392 71.9054 54.8073 71.779C54.7739 71.6527 54.8225 71.5207 54.9281 71.4443L61.3128 66.9027C61.3753 66.8582 61.4503 66.8388 61.5267 66.8471L71.1073 67.8402C71.2364 67.854 71.3448 67.9457 71.3767 68.0721C71.41 68.1985 71.3614 68.3304 71.2559 68.4068L64.8712 72.9485C64.817 72.986 64.7531 73.0054 64.6878 73.0054ZM55.9642 71.4749L64.6031 72.3693L70.217 68.3763L61.5781 67.4818L55.9642 71.4749Z" fill="#F9FAFB"/>
<path d="M92.8474 70.4068L86.796 74.9818L75.5391 73.8166L81.9266 69.2749L92.8474 70.4068Z" fill="#D0D5DD"/>
<path d="M86.7978 75.2944C86.7867 75.2944 86.777 75.2944 86.7659 75.293L75.5103 74.1277C75.3811 74.1138 75.2728 74.0221 75.2409 73.8957C75.2075 73.7694 75.2561 73.6374 75.3617 73.561L81.7478 69.0194C81.8103 68.9749 81.8853 68.9555 81.9617 68.9638L92.8825 70.0957C93.0103 70.1096 93.1173 70.1985 93.152 70.3221C93.1867 70.4457 93.1423 70.5777 93.0395 70.6555L86.9881 75.2305C86.9311 75.2721 86.8645 75.2944 86.7978 75.2944ZM76.3978 73.5916L86.7075 74.6596L92.0284 70.6374L82.0131 69.5999L76.3978 73.5916Z" fill="#F9FAFB"/>
<path d="M86.7949 74.9817L80.8254 79.4942L69.7227 77.9511L75.5379 73.8164L86.7949 74.9817Z" fill="#D0D5DD"/>
<path d="M80.8261 79.8068C80.8122 79.8068 80.797 79.8054 80.7831 79.804L69.6803 78.2609C69.5539 78.2429 69.4497 78.1498 69.4192 78.0262C69.3886 77.9012 69.4372 77.772 69.5414 77.697L75.3567 73.5623C75.4192 73.5179 75.4942 73.4984 75.5706 73.5068L86.8261 74.672C86.9539 74.6859 87.0608 74.7748 87.0956 74.8984C87.1303 75.022 87.0858 75.154 86.9831 75.2318L81.015 79.7443C80.9608 79.7845 80.8942 79.8068 80.8261 79.8068ZM70.5456 77.7498L80.7414 79.1665L85.9733 75.2109L75.6233 74.1387L70.5456 77.7498Z" fill="#F9FAFB"/>
<path d="M75.537 73.8165L69.7217 77.9512L59.3203 76.5068L64.6842 72.6929H64.6856L75.537 73.8165Z" fill="#D0D5DD"/>
<path d="M69.7224 78.2638C69.7085 78.2638 69.6932 78.2624 69.6793 78.261L59.2779 76.8166C59.1516 76.7985 59.0474 76.7055 59.0168 76.5818C58.9863 76.4568 59.0349 76.3277 59.1391 76.2527L64.5029 72.4388C64.5641 72.3943 64.6432 72.3749 64.7182 72.3832L75.5696 73.5068C75.6988 73.5207 75.8071 73.6124 75.8391 73.7388C75.8724 73.8652 75.8238 73.9971 75.7182 74.0735L69.9029 78.2082C69.8502 78.2443 69.7863 78.2638 69.7224 78.2638ZM60.1432 76.3055L69.6418 77.6249L74.6807 74.0416L64.7696 73.0152L60.1432 76.3055Z" fill="#F9FAFB"/>
<path d="M64.6851 72.6933L59.3212 76.5071L50.1406 75.2307L55.1073 71.7002L64.6851 72.6933Z" fill="#D0D5DD"/>
<path d="M59.3219 76.8197C59.308 76.8197 59.2927 76.8183 59.2788 76.8169L50.0983 75.5406C49.9719 75.5225 49.8677 75.4294 49.8371 75.3058C49.8066 75.1808 49.8552 75.0517 49.9594 74.9767L54.9246 71.4461C54.9871 71.4017 55.0621 71.3822 55.1385 71.3906L64.7163 72.3836C64.8455 72.3975 64.9538 72.4892 64.9858 72.6156C65.0191 72.7419 64.9705 72.8739 64.8649 72.9503L59.501 76.7642C59.4496 76.8003 59.3871 76.8197 59.3219 76.8197ZM50.9635 75.0294L59.2413 76.1808L63.8288 72.9197L55.1913 72.0253L50.9635 75.0294Z" fill="#F9FAFB"/>
<path d="M94.6963 60.1973L83.8477 59.0723L94.6977 60.1945H94.7004L104.948 61.257L94.6977 60.1973H94.6963Z" fill="#D0D5DD"/>
<path d="M104.949 61.5695C104.938 61.5695 104.927 61.5695 104.917 61.5681L94.6756 60.5084C94.6728 60.5084 94.6686 60.5084 94.6658 60.507L83.8158 59.382C83.6436 59.364 83.52 59.2112 83.5367 59.039C83.5547 58.8667 83.7075 58.7431 83.8797 58.7598L83.8922 58.7612L94.7228 59.882C94.7256 59.882 94.7297 59.882 94.7325 59.8834L104.981 60.9459C105.153 60.964 105.277 61.1167 105.26 61.289C105.242 61.4501 105.106 61.5695 104.949 61.5695Z" fill="#F9FAFB"/>
<path d="M73.3359 55.4779L82.6207 32.3057L118.404 33.7501L111.611 59.4293L73.3359 55.4779Z" fill="#D0D5DD"/>
<path d="M111.611 59.7417C111.599 59.7417 111.59 59.7417 111.579 59.7403L73.3036 55.7903C73.2064 55.7806 73.1189 55.725 73.0689 55.6417C73.0175 55.5584 73.0091 55.4556 73.0466 55.3639L82.3314 32.1917C82.38 32.0695 82.5008 31.9903 82.6341 31.9959L118.417 33.4403C118.512 33.4445 118.599 33.4903 118.656 33.5667C118.713 33.6431 118.731 33.7403 118.708 33.832L111.915 59.5098C111.876 59.6473 111.751 59.7417 111.611 59.7417ZM73.78 55.2098L111.377 59.0903L118.002 34.0473L82.8286 32.6278L73.78 55.2098Z" fill="#F9FAFB"/>
<path d="M76.6172 54.0794L84.5491 34.2822L115.121 35.5156L109.317 57.4545L76.6172 54.0794Z" fill="#F7F9FC"/>
<path d="M109.317 57.7669C109.306 57.7669 109.296 57.7669 109.285 57.7655L76.5848 54.3891C76.4876 54.3794 76.4001 54.3238 76.3501 54.2405C76.2987 54.1572 76.2904 54.0544 76.3279 53.9627L84.2598 34.1655C84.3084 34.0433 84.4293 33.9627 84.5626 33.9697L115.135 35.2044C115.229 35.2085 115.317 35.2544 115.374 35.3308C115.431 35.4072 115.449 35.5044 115.424 35.596L109.62 57.5335C109.582 57.6724 109.458 57.7669 109.317 57.7669ZM77.0612 53.8099L109.083 57.1155L114.72 35.8127L84.7571 34.603L77.0612 53.8099Z" fill="#F9FAFB"/>
<path d="M43.4844 76.7959V90.1042L81.6233 95.4042V82.0945L43.4844 76.7959Z" fill="#667185"/>
<path d="M81.6247 95.7166C81.6108 95.7166 81.5955 95.7152 81.5816 95.7138L43.4427 90.4152C43.2885 90.3944 43.1733 90.261 43.1733 90.1055L43.1719 76.7971C43.1719 76.7069 43.2108 76.6207 43.2788 76.561C43.3469 76.5013 43.4372 76.4749 43.5274 76.4874L81.6663 81.786C81.8205 81.8069 81.9358 81.9402 81.9358 82.0957V95.4041C81.9358 95.4944 81.8969 95.5805 81.8288 95.6402C81.7733 95.6888 81.6997 95.7166 81.6247 95.7166ZM43.7983 89.8319L81.3122 95.0444V82.3666L43.7983 77.1541V89.8319Z" fill="#F9FAFB"/>
<path d="M77.211 86.3916V88.1027L47.418 84.336V82.6235L77.211 86.3916Z" fill="#D0D5DD"/>
<path d="M77.5235 88.457L47.1055 84.6126V82.2695L77.5235 86.1167V88.457ZM47.7305 84.0612L76.8985 87.7487V86.6667L47.7305 82.9779V84.0612Z" fill="#D0D5DD"/>
<path d="M14.1016 120.418C19.8002 118.967 25.5016 117.534 30.7266 114.738C35.9946 111.92 39.3585 107.785 40.9877 102.034C42.278 97.4752 42.8446 92.7002 45.4807 88.6877C47.3904 85.7807 50.3474 83.8516 50.3474 83.8516L74.7543 86.9377C72.2113 89.6682 70.0238 92.7807 68.1363 95.9905C66.4071 98.9307 64.8599 101.689 63.9724 105.013C63.0682 108.399 62.5196 111.934 60.8863 115.075C59.2488 118.224 56.5988 120.759 53.6488 122.731C47.9252 126.557 41.2043 128.897 34.5766 130.585C34.5766 130.584 14.1016 120.418 14.1016 120.418Z" fill="#E4E7EC"/>
<path d="M34.5769 130.896C34.5297 130.896 34.4811 130.885 34.438 130.864L13.963 120.699C13.8464 120.64 13.7769 120.515 13.7908 120.386C13.8047 120.256 13.8978 120.149 14.0242 120.117L14.2172 120.068C19.738 118.662 25.4478 117.21 30.5797 114.464C35.7853 111.679 39.0922 107.586 40.6867 101.95C41.0158 100.787 41.3033 99.5903 41.5797 98.4305C42.3908 95.0458 43.2283 91.5458 45.2186 88.5166C47.1422 85.5889 50.0533 83.6694 50.1755 83.5903C50.238 83.55 50.3117 83.5319 50.3853 83.5416L74.7922 86.6278C74.9089 86.643 75.0075 86.7208 75.0464 86.8319C75.0867 86.9416 75.0617 87.0653 74.9811 87.1514C72.6644 89.6389 70.4519 92.6667 68.4047 96.15C66.6575 99.1236 65.1408 101.849 64.2728 105.094C64.0478 105.935 63.8422 106.801 63.6422 107.639C63.0339 110.19 62.4061 112.828 61.1617 115.221C59.6464 118.133 57.1769 120.749 53.82 122.992C48.8492 126.315 42.7575 128.825 34.6505 130.889C34.6283 130.893 34.6019 130.896 34.5769 130.896ZM14.9964 120.514L34.6117 130.253C42.5908 128.212 48.5867 125.739 53.4755 122.471C56.7436 120.286 59.1436 117.75 60.6089 114.931C61.8172 112.607 62.4367 110.007 63.0367 107.493C63.2367 106.651 63.445 105.781 63.6714 104.932C64.5589 101.61 66.0964 98.8458 67.8686 95.8319C69.8186 92.5153 71.9186 89.6041 74.1172 87.1722L50.4269 84.1778C49.9144 84.5305 47.4061 86.3305 45.7436 88.8611C43.813 91.8 42.988 95.2458 42.1894 98.5778C41.9103 99.743 41.6214 100.947 41.2894 102.121C39.645 107.928 36.2394 112.146 30.8755 115.015C25.87 117.69 20.3575 119.146 14.9964 120.514Z" fill="#F9FAFB"/>
<path d="M88.3131 64.7363L81.927 69.2752L71.0742 68.153L77.4603 63.6113L88.3131 64.7363Z" fill="#D0D5DD"/>
<path d="M81.9263 69.5876C81.9152 69.5876 81.9054 69.5876 81.8943 69.5863L71.0416 68.4626C70.9124 68.4488 70.8041 68.3571 70.7721 68.2307C70.7388 68.1043 70.7874 67.9724 70.8929 67.896L77.2791 63.3543C77.3416 63.3099 77.4166 63.2904 77.4929 63.2988L88.3457 64.4238C88.4749 64.4376 88.5832 64.5293 88.6152 64.6557C88.6471 64.7821 88.5999 64.914 88.4943 64.9904L82.1082 69.5293C82.0541 69.5682 81.9902 69.5876 81.9263 69.5876ZM71.9291 67.9265L81.8402 68.9529L87.4554 64.9613L77.5443 63.9335L71.9291 67.9265Z" fill="#F9FAFB"/>
<path d="M94.6992 60.5083C94.527 60.5083 94.3867 60.3694 94.3867 60.1972V60.1958C94.3867 60.0236 94.527 59.8833 94.6992 59.8833C94.8714 59.8833 95.0131 60.0236 95.0131 60.1958C95.0131 60.3222 94.9381 60.4305 94.8312 60.4805C94.7895 60.4986 94.7451 60.5083 94.6992 60.5083Z" fill="#F9FAFB"/>
<path d="M83.8442 59.0722L77.4595 63.611L67.8789 62.6208L74.2622 58.0791L83.8442 59.0722Z" fill="#D0D5DD"/>
<path d="M77.4587 63.9236C77.4476 63.9236 77.4379 63.9236 77.4268 63.9222L67.8462 62.932C67.7171 62.9181 67.6087 62.8264 67.5768 62.7014C67.5435 62.575 67.5921 62.4431 67.6976 62.3667L74.081 57.825C74.1435 57.7806 74.2185 57.7611 74.2949 57.7695L83.8768 58.7625C84.006 58.7764 84.1143 58.8681 84.1462 58.9945C84.1796 59.1209 84.131 59.2528 84.0254 59.3292L77.6407 63.8681C77.5865 63.9028 77.524 63.9236 77.4587 63.9236ZM68.7351 62.3945L77.374 63.2875L82.9879 59.2972L74.3476 58.4028L68.7351 62.3945Z" fill="#F9FAFB"/>
<path d="M94.6971 60.1973L88.3137 64.7362L77.4609 63.6112L83.8457 59.0723H83.8484L94.6971 60.1973Z" fill="#D0D5DD"/>
<path d="M88.313 65.0487C88.3019 65.0487 88.2922 65.0487 88.2811 65.0473L77.4283 63.9223C77.2991 63.9084 77.1908 63.8167 77.1588 63.6903C77.1255 63.5639 77.1741 63.432 77.2797 63.3556L83.6644 58.8167C83.7255 58.7723 83.8047 58.7528 83.8797 58.7612L94.7297 59.8862C94.8588 59.9001 94.9672 59.9917 94.9991 60.1181C95.0324 60.2445 94.9838 60.3764 94.8783 60.4528L88.4949 64.9917C88.4408 65.0292 88.3783 65.0487 88.313 65.0487ZM78.3172 63.3862L88.2283 64.4139L93.8408 60.4223L83.9311 59.3945L78.3172 63.3862Z" fill="#F9FAFB"/>
<path d="M98.8966 65.8322L92.8466 70.4072L81.9258 69.2752L88.3119 64.7363L98.8966 65.8322Z" fill="#D0D5DD"/>
<path d="M92.8459 70.7197C92.8348 70.7197 92.8251 70.7197 92.814 70.7183L81.8931 69.5863C81.7639 69.5724 81.6556 69.4808 81.6237 69.3544C81.5903 69.228 81.6389 69.0961 81.7445 69.0197L88.1306 64.4808C88.1931 64.4363 88.2681 64.4169 88.3445 64.4252L98.9292 65.5211C99.057 65.5349 99.164 65.6238 99.1987 65.7474C99.2334 65.8711 99.189 66.003 99.0862 66.0808L93.0362 70.6558C92.9792 70.6974 92.914 70.7197 92.8459 70.7197ZM82.782 69.0502L92.7556 70.0836L98.0751 66.0613L88.3973 65.0586L82.782 69.0502Z" fill="#F9FAFB"/>
<path d="M81.9264 69.2751L75.5389 73.8167L64.6875 72.6931L71.0736 68.1528L81.9264 69.2751Z" fill="#D0D5DD"/>
<path d="M75.5376 74.1291C75.5265 74.1291 75.5168 74.1291 75.5057 74.1278L64.6543 73.0042C64.5251 72.9903 64.4168 72.8986 64.3848 72.7722C64.3529 72.6458 64.4001 72.5139 64.5057 72.4375L70.8904 67.8958C70.9529 67.8514 71.0279 67.8319 71.1043 67.8403L81.9571 68.9639C82.0862 68.9778 82.1946 69.0694 82.2265 69.1958C82.2598 69.3222 82.2112 69.4542 82.1057 69.5305L75.7196 74.0722C75.6668 74.1083 75.6029 74.1291 75.5376 74.1291ZM65.5432 72.468L75.4529 73.4944L81.0682 69.5014L71.1571 68.475L65.5432 72.468Z" fill="#F9FAFB"/>
<path d="M107.037 40.461C107.026 40.461 107.013 40.461 107.002 40.4596L90.4464 39.4304C90.1394 39.411 89.9075 39.1471 89.9269 38.8415C89.9464 38.5346 90.2103 38.3013 90.5158 38.3221L107.073 39.3526C107.38 39.3721 107.612 39.636 107.592 39.9415C107.573 40.2346 107.328 40.461 107.037 40.461Z" fill="#D0D5DD"/>
<path d="M105.347 44.5892C105.336 44.5892 105.323 44.5892 105.312 44.5878L88.755 43.5572C88.448 43.5378 88.2161 43.2739 88.2355 42.9683C88.255 42.6614 88.5202 42.4294 88.8244 42.4489L105.381 43.4794C105.688 43.4989 105.92 43.7628 105.901 44.0683C105.883 44.3614 105.638 44.5892 105.347 44.5892Z" fill="#D0D5DD"/>
<path d="M65.6361 94.1513C65.6069 94.1513 65.5763 94.1485 65.5458 94.1444L47.3291 91.1624C47.0263 91.1124 46.8208 90.8277 46.8708 90.5249C46.9208 90.2221 47.2055 90.0166 47.5083 90.0666L65.7249 93.0485C66.0277 93.0985 66.2333 93.3832 66.1833 93.686C66.1388 93.9569 65.9041 94.1513 65.6361 94.1513Z" fill="#D0D5DD"/>
<path d="M64.0954 97.3682C64.0662 97.3682 64.0385 97.3654 64.0093 97.3612L45.9149 94.5335C45.6121 94.4862 45.4037 94.2015 45.4524 93.8987C45.4996 93.596 45.7843 93.3876 46.0871 93.4362L64.1815 96.264C64.4843 96.3112 64.6926 96.596 64.644 96.8987C64.601 97.1724 64.3635 97.3682 64.0954 97.3682Z" fill="#D0D5DD"/>
<path d="M62.3163 100.933C62.2871 100.933 62.2579 100.931 62.2274 100.927L44.9135 98.1585C44.6107 98.1099 44.4038 97.8252 44.4524 97.5224C44.501 97.2196 44.7857 97.0127 45.0885 97.0613L62.4024 99.8293C62.7052 99.8779 62.9121 100.163 62.8635 100.465C62.8204 100.739 62.5843 100.933 62.3163 100.933Z" fill="#D0D5DD"/>
<path d="M61.1011 104.499C61.0719 104.499 61.0428 104.496 61.0122 104.492L43.9955 101.772C43.6928 101.724 43.4858 101.439 43.5344 101.136C43.583 100.833 43.8678 100.626 44.1705 100.675L61.1872 103.394C61.49 103.443 61.6969 103.728 61.6483 104.031C61.6053 104.303 61.3691 104.499 61.1011 104.499Z" fill="#D0D5DD"/>
<path d="M103.659 48.7151C103.648 48.7151 103.636 48.7151 103.624 48.7138L87.0675 47.6832C86.7605 47.6638 86.5286 47.3999 86.548 47.0943C86.5675 46.7874 86.8313 46.5554 87.1369 46.5749L103.694 47.6054C104.001 47.6249 104.233 47.8888 104.213 48.1943C104.195 48.4888 103.951 48.7151 103.659 48.7151Z" fill="#D0D5DD"/>
<path d="M101.972 52.8416C101.961 52.8416 101.948 52.8416 101.937 52.8402L85.38 51.8097C85.073 51.7902 84.8411 51.5263 84.8605 51.2208C84.88 50.9138 85.1438 50.6819 85.4494 50.7013L102.006 51.7319C102.313 51.7513 102.545 52.0152 102.526 52.3208C102.508 52.6152 102.262 52.8416 101.972 52.8416Z" fill="#D0D5DD"/>
<path d="M132.548 46.8135L132.857 48.7482C133.044 49.9079 133.839 50.8163 134.985 51.1746L136.898 51.7704L134.795 52.3663C133.537 52.7246 132.451 53.6315 131.894 54.7926L130.967 56.7274L130.656 54.7926C130.47 53.6329 129.674 52.7246 128.528 52.3663L126.617 51.7704L128.719 51.1746C129.977 50.8163 131.063 49.9093 131.62 48.7482L132.548 46.8135Z" fill="#D0D5DD"/>
<path d="M71.8871 39.2109L72.1246 40.6943C72.2676 41.5832 72.8773 42.2804 73.7565 42.554L75.2232 43.0109L73.6107 43.4693C72.6454 43.7429 71.8135 44.4387 71.3857 45.3276L70.6746 46.8123L70.4371 45.3276C70.294 44.4387 69.6829 43.7429 68.8051 43.4693L67.3398 43.0109L68.951 42.554C69.9162 42.2804 70.7482 41.5832 71.176 40.6943L71.8871 39.2109Z" fill="#D0D5DD"/>
<path d="M111.946 87.3081L112.078 88.1359C112.159 88.6303 112.499 89.0192 112.988 89.172L113.804 89.4276L112.907 89.6831C112.368 89.8359 111.904 90.2248 111.667 90.7192L111.271 91.547L111.139 90.7192C111.059 90.2248 110.72 89.8359 110.231 89.6831L109.414 89.4276L110.313 89.172C110.852 89.0192 111.314 88.6303 111.552 88.1359L111.946 87.3081Z" fill="#D0D5DD"/>
<path d="M37.2741 89.4263L37.4061 90.2527C37.4852 90.7485 37.8255 91.136 38.3158 91.2888L39.1325 91.5443L38.2352 91.7999C37.6964 91.9527 37.2325 92.3415 36.995 92.8374L36.5991 93.6638L36.4672 92.8374C36.3894 92.3415 36.0477 91.9541 35.5589 91.7999L34.7422 91.5443L35.6394 91.2888C36.1783 91.1374 36.6422 90.7485 36.8783 90.2527L37.2741 89.4263Z" fill="#D0D5DD"/>
</svg>
