<svg width="17" height="21" viewBox="0 0 17 21" fill="none" xmlns="http://www.w3.org/2000/svg">
<path d="M12.249 4.65384C12.249 5.6229 11.8539 6.55227 11.1507 7.2375C10.4474 7.92273 9.49356 8.30769 8.499 8.30769C7.50444 8.30769 6.55061 7.92273 5.84735 7.2375C5.14409 6.55227 4.749 5.6229 4.749 4.65384C4.749 3.68478 5.14409 2.75541 5.84735 2.07019C6.55061 1.38496 7.50444 1 8.499 1C9.49356 1 10.4474 1.38496 11.1507 2.07019C11.8539 2.75541 12.249 3.68478 12.249 4.65384ZM1 18.4098C1.03213 16.4926 1.83634 14.6646 3.23918 13.3198C4.64202 11.9751 6.53109 11.2215 8.499 11.2215C10.4669 11.2215 12.356 11.9751 13.7588 13.3198C15.1617 14.6646 15.9659 16.4926 15.998 18.4098C13.6454 19.4609 11.0871 20.0034 8.499 20C5.823 20 3.283 19.431 1 18.4098Z" stroke="black" stroke-width="1.5" stroke-linecap="round" stroke-linejoin="round"/>
</svg>
